<svg xmlns="http://www.w3.org/2000/svg" viewBox="0 0 1200 630" width="1200" height="630" role="img" aria-label="Synapse — Where workflows interact">
  <defs>
    <radialGradient id="g1" cx="50%" cy="0%" r="80%">
      <stop offset="0%" stop-color="#635BFF" stop-opacity="0.35"/>
      <stop offset="60%" stop-color="#635BFF" stop-opacity="0"/>
    </radialGradient>
    <linearGradient id="g2" x1="0%" y1="0%" x2="100%" y2="0%">
      <stop offset="0%" stop-color="#635BFF"/>
      <stop offset="100%" stop-color="#9D9BFF"/>
    </linearGradient>
  </defs>
  <rect width="1200" height="630" fill="#0A0A0A"/>
  <rect width="1200" height="630" fill="url(#g1)"/>
  <g transform="translate(80,80)">
    <rect width="56" height="56" rx="14" fill="#635BFF"/>
    <circle cx="18" cy="20" r="5" fill="#fff"/>
    <circle cx="38" cy="20" r="5" fill="#fff"/>
    <circle cx="28" cy="40" r="5" fill="#fff"/>
    <path d="M18 20L28 40M38 20L28 40M18 20L38 20" stroke="#fff" stroke-width="2.5" stroke-linecap="round"/>
  </g>
  <text x="80" y="320" font-family="Inter, system-ui, sans-serif" font-size="96" font-weight="800" fill="#FFFFFF" letter-spacing="-3">Synapse</text>
  <text x="84" y="400" font-family="Inter, system-ui, sans-serif" font-size="40" font-weight="500" fill="#9D9BFF" letter-spacing="-1">Where workflows interact.</text>
  <text x="80" y="500" font-family="ui-monospace, monospace" font-size="20" fill="#8A8A8A">AI automation platform · agents · orchestration · observability</text>
  <g transform="translate(900,200)" stroke="#635BFF" stroke-width="1.5">
    <circle cx="0" cy="0" r="80" fill="none" stroke-opacity="0.3"/>
    <circle cx="0" cy="0" r="56" fill="none" stroke-opacity="0.4"/>
    <circle cx="0" cy="0" r="32" fill="none" stroke-opacity="0.5"/>
    <circle cx="0" cy="0" r="10" fill="#635BFF" stroke="none"/>
    <circle cx="80" cy="0" r="6" fill="#9D9BFF" stroke="none"/>
    <circle cx="-80" cy="0" r="4" fill="#635BFF" fill-opacity="0.6" stroke="none"/>
    <circle cx="0" cy="-80" r="5" fill="#9D9BFF" fill-opacity="0.6" stroke="none"/>
  </g>
</svg>